# xmcd
#
# Track frame offsets:
#	150
#	4219
#	71151
#	152938
#	226864
#	233298
#
# Disc length: 3386 seconds
# Revision: 0
# Processed by: cddbd v1.5.2PL0 Copyright (c) Steve Scherf et al.
# Submitted via: dBpowerAMP V12.0
#
DISCID=3e0d3806
DTITLE=Hale Dwoskin - The Inner Circle Retreat 02 CD 16
DYEAR=2007
DGENRE=Speech
TTITLE0=Money and Scarcity
TTITLE1=Release on Money and Scarcity
TTITLE2=Feelings Only Lie - Wanting to Connect
TTITLE3=Losing Your Mind - Being Robbed
TTITLE4=Participant Gain
TTITLE5=Falling Asleep
EXTD=
EXTT0=
EXTT1=
EXTT2=
EXTT3=
EXTT4=
EXTT5=
PLAYORDER=
